<?xml version="1.0" encoding="utf-8"?>
<!-- Generator: Adobe Illustrator 26.2.1, SVG Export Plug-In . SVG Version: 6.00 Build 0)  -->
<svg version="1.1" xmlns="http://www.w3.org/2000/svg" xmlns:xlink="http://www.w3.org/1999/xlink" x="0px" y="0px"
	 viewBox="0 0 640 640" style="enable-background:new 0 0 640 640;" xml:space="preserve">
<style type="text/css">
	.st0{fill:#FFFFFF;}
	.st1{fill:#172729;}
	.st2{fill:#2E939E;}
	.st3{fill:#BCE2E8;}
	.st4{fill:#24C5E3;}
	.st5{fill:#D3593D;}
	.st6{fill:#E28027;}
	.st7{fill:none;stroke:#172729;stroke-miterlimit:10;}
	.st8{fill:#00697A;}
	.st9{fill:#222222;}
	.st10{fill:#989898;}
	.st11{fill:#4B4B4B;}
	.st12{fill:#767676;}
</style>
<g id="Logos__x28_place_final_logo_here_x29_">
</g>
<g id="Brand_Book">
	<g>
		<path class="st1" d="M629.36,320c0,127.52-77.16,237.02-187.33,284.35c-37.44,16.09-78.69,25.01-122.02,25.01
			c-45.35,0-88.41-9.76-127.21-27.28C85.38,553.56,10.64,445.51,10.64,320c0-170.85,138.5-309.36,309.36-309.36
			C490.86,10.64,629.36,149.15,629.36,320z"/>
		<g>
			<path class="st3" d="M442.02,604.35c-37.44,16.09-78.69,25.01-122.02,25.01c-45.35,0-88.41-9.76-127.21-27.28l24.48-121.27
				l27.99-138.66l9.04-44.81h0.01l7.11-35.25l0.09-0.46l5.52-27.32l5.46-27.03h89.4l5.46,27.03l5.49,27.23l0.12,0.55l16.15,80.04
				l27.99,138.69L442.02,604.35z"/>
			<path class="st4" d="M317.18,326.15c-26.62,0-51.36,5.88-71.93,15.99l27.22-134.86h89.39l27.22,134.85
				C368.52,332.03,343.79,326.15,317.18,326.15z"/>
			<path class="st4" d="M442.02,604.35c-37.44,16.09-78.69,25.01-122.02,25.01c-45.35,0-88.41-9.76-127.21-27.28l24.48-121.27
				c23.7,21.1,59.65,34.56,99.91,34.56c40.23,0,76.18-13.45,99.9-34.54h0.01L442.02,604.35z"/>
			<path class="st3" d="M410.56,280.43V253.6c0-12.63-41.81-22.86-93.38-22.86s-93.38,10.24-93.38,22.86v26.83
				c0,0,2.75-22.86,93.38-22.86C408.88,257.56,410.56,280.43,410.56,280.43z"/>
			<path class="st8" d="M261.42,262.08c-22.83,4.17-37.62,10.83-37.62,18.34c0,6.7,11.76,12.72,30.51,16.9L261.42,262.08z"/>
			<path class="st8" d="M372.94,262.08c22.83,4.17,37.62,10.83,37.62,18.34c0,6.7-11.76,12.72-30.51,16.9L372.94,262.08z"/>
			<circle class="st8" cx="317.17" cy="411.16" r="41.95"/>
			<path class="st2" d="M317.17,411.16l-25.33,33.44c-10.46-7.92-16.62-20.32-16.62-33.44c0-23.01,18.94-41.95,41.95-41.95
				c9.52,0,18.77,3.24,26.2,9.19L317.17,411.16z"/>
			<path class="st8" d="M361.69,185.59v21.69h-89.22v-21.69l39.83-27.19v-19.75c-3.47-1.74-5.85-5.34-5.85-9.5
				c0-5.87,4.76-10.64,10.64-10.64c5.88,0,10.65,4.76,10.65,10.64c0,4.15-2.38,7.75-5.85,9.5v19.76L361.69,185.59z"/>
			<path class="st2" d="M317.17,207.28l-44.7-0.01v-21.68l39.83-27.19v-19.75c-3.47-1.74-5.85-5.34-5.85-9.5
				c0-5.87,4.76-10.64,10.64-10.64c-3.19,3.54-4.78,7.09-4.78,10.64c0,3.55,1.6,7.1,4.78,10.65v15.34L317.17,207.28z"/>
		</g>
	</g>
</g>
<g id="Guidelines">
</g>
</svg>
