<?xml version="1.0" encoding="utf-8"?>
<!-- Generator: Adobe Illustrator 26.2.1, SVG Export Plug-In . SVG Version: 6.00 Build 0)  -->
<svg version="1.1" xmlns="http://www.w3.org/2000/svg" xmlns:xlink="http://www.w3.org/1999/xlink" x="0px" y="0px"
	 viewBox="0 0 640 640" style="enable-background:new 0 0 640 640;" xml:space="preserve">
<style type="text/css">
	.st0{fill:#FFFFFF;}
	.st1{fill:#172729;}
	.st2{fill:#2E939E;}
	.st3{fill:#BCE2E8;}
	.st4{fill:#24C5E3;}
	.st5{fill:#D3593D;}
	.st6{fill:#E28027;}
	.st7{fill:none;stroke:#172729;stroke-miterlimit:10;}
	.st8{fill:#00697A;}
	.st9{fill:#222222;}
	.st10{fill:#989898;}
	.st11{fill:#4B4B4B;}
	.st12{fill:#767676;}
</style>
<g id="Logos__x28_place_final_logo_here_x29_">
</g>
<g id="Brand_Book">
	<g>
		<g>
			<path class="st3" d="M559.72,246.56c0,98.82-59.79,183.67-145.16,220.35c-29.01,12.47-60.98,19.38-94.55,19.38
				c-35.14,0-68.51-7.56-98.58-21.14C138.2,427.55,80.28,343.82,80.28,246.56C80.28,114.17,187.6,6.84,320,6.84
				C452.4,6.84,559.72,114.17,559.72,246.56z"/>
			<g>
				<path class="st4" d="M396.53,373.36c-18.69,16.63-47.04,27.23-78.74,27.23c-31.75,0-60.1-10.62-78.79-27.25l22.08-109.31
					l7.13-35.34l5.6-27.78l0.08-0.35v-0.02l4.35-21.53l4.29-21.3H353l4.32,21.3l3.97,19.72l0.35,1.76l0.1,0.43l5.6,27.78l7.13,35.31
					L396.53,373.36z"/>
				<path class="st1" d="M317.78,251.41c-20.99,0-40.49,4.64-56.7,12.6l21.46-106.32h70.47l21.46,106.31
					C358.25,256.05,338.76,251.41,317.78,251.41z"/>
				<path class="st1" d="M416.2,470.74c-29.51,12.68-62.04,19.72-96.2,19.72c-35.74,0-69.7-7.69-100.29-21.5L239,373.33
					c18.69,16.63,47.04,27.25,78.79,27.25c31.7,0,60.05-10.6,78.74-27.23L416.2,470.74z"/>
				<path class="st4" d="M391.4,215.36v-21.15c0-9.95-32.96-18.02-73.62-18.02s-73.62,8.07-73.62,18.02v21.15
					c0,0,2.17-18.02,73.62-18.02C390.07,197.34,391.4,215.36,391.4,215.36z"/>
				<path class="st8" d="M273.81,200.91c-18,3.29-29.66,8.54-29.66,14.46c0,5.28,9.27,10.03,24.05,13.33L273.81,200.91z"/>
				<path class="st8" d="M361.74,200.91c18,3.29,29.66,8.54,29.66,14.46c0,5.28-9.27,10.03-24.05,13.33L361.74,200.91z"/>
				<circle class="st8" cx="317.77" cy="318.43" r="33.07"/>
				<path class="st3" d="M317.77,318.43l-19.97,26.36c-8.25-6.25-13.1-16.02-13.1-26.36c0-18.14,14.93-33.07,33.07-33.07
					c7.51,0,14.79,2.56,20.66,7.24L317.77,318.43z"/>
				<path class="st8" d="M352.87,140.6v17.1h-70.34v-17.1l31.4-21.44v-15.57c-2.73-1.37-4.61-4.21-4.61-7.49
					c0-4.63,3.76-8.38,8.38-8.38c4.64,0,8.39,3.76,8.39,8.38c0,3.27-1.88,6.11-4.61,7.49v15.58L352.87,140.6z"/>
				<path class="st4" d="M317.77,157.7l-35.24-0.01V140.6l31.4-21.44v-15.57c-2.73-1.37-4.61-4.21-4.61-7.49
					c0-4.63,3.76-8.38,8.38-8.38c-2.51,2.79-3.77,5.59-3.77,8.38c0,2.8,1.26,5.59,3.77,8.39v12.09L317.77,157.7z"/>
			</g>
		</g>
		<g>
			<path class="st3" d="M118.09,600.8l16.64-3.28c0.52,12.58,3.54,20.7,12.05,20.7c6.16,0,8.78-4.19,8.78-9.96
				c0-9.17-4.72-14.28-11.66-20.3l-13.36-11.66c-7.6-6.55-12.31-13.89-12.31-25.67c0-16.77,10.48-26.2,27.38-26.2
				c19.91,0,25.54,13.36,26.59,28.82l-16.64,2.88c-0.39-9.95-1.83-17.42-10.35-17.42c-5.76,0-8.91,4.32-8.91,9.95
				c0,7.2,3.01,11.13,8.65,15.98l13.23,11.66c8.65,7.47,15.85,16.77,15.85,30.78c0,15.33-10.74,26.07-26.59,26.07
				C128.04,633.16,118.87,621.89,118.09,600.8z"/>
			<path class="st3" d="M185.41,525.61h19.26v46.63l21.09-46.63h18.47l-20.3,47.29l22.4,58.82h-19.26l-17.68-48.21l-4.72,7.99v40.21
				h-19.26V525.61z"/>
			<path class="st3" d="M251.82,598.45v-39.82c0-21.48,7.86-34.19,30.65-34.19c22.66,0,30.52,12.71,30.52,34.19v39.82
				c0,21.35-7.86,34.71-30.52,34.71C259.55,633.16,251.82,619.93,251.82,598.45z M293.35,603.03v-48.86
				c0-8.91-1.44-15.59-10.87-15.59c-9.43,0-11,6.68-11,15.59v48.86c0,8.78,1.44,15.85,11,15.85
				C291.91,618.88,293.35,611.81,293.35,603.03z"/>
			<path class="st3" d="M327.27,525.61h31.18c18.99,0,27.12,11,27.12,30.13c0,20.83-11.27,28.82-28.43,28.82h-10.61v47.16h-19.26
				V525.61z M354,570.94c10.61,0,13.36-4.06,13.36-15.33c0-11.4-1.44-16.37-13.36-16.37h-7.47v31.7H354z"/>
			<path class="st3" d="M394.6,598.45v-39.82c0-21.48,7.86-34.19,30.65-34.19c22.66,0,30.52,12.71,30.52,34.19v39.82
				c0,21.35-7.86,34.71-30.52,34.71C402.33,633.16,394.6,619.93,394.6,598.45z M436.12,603.03v-48.86c0-8.91-1.44-15.59-10.87-15.59
				c-9.43,0-11,6.68-11,15.59v48.86c0,8.78,1.44,15.85,11,15.85C434.68,618.88,436.12,611.81,436.12,603.03z"/>
			<path class="st3" d="M467.43,600.8l16.64-3.28c0.52,12.58,3.54,20.7,12.05,20.7c6.16,0,8.78-4.19,8.78-9.96
				c0-9.17-4.72-14.28-11.66-20.3l-13.36-11.66c-7.6-6.55-12.31-13.89-12.31-25.67c0-16.77,10.48-26.2,27.38-26.2
				c19.91,0,25.54,13.36,26.59,28.82l-16.64,2.88c-0.39-9.95-1.83-17.42-10.35-17.42c-5.76,0-8.91,4.32-8.91,9.95
				c0,7.2,3.01,11.13,8.64,15.98l13.23,11.66c8.64,7.47,15.85,16.77,15.85,30.78c0,15.33-10.74,26.07-26.59,26.07
				C477.38,633.16,468.22,621.89,467.43,600.8z"/>
		</g>
	</g>
</g>
<g id="Guidelines">
</g>
</svg>
