<?xml version="1.0" encoding="utf-8"?>
<!-- Generator: Adobe Illustrator 26.2.1, SVG Export Plug-In . SVG Version: 6.00 Build 0)  -->
<svg version="1.1" xmlns="http://www.w3.org/2000/svg" xmlns:xlink="http://www.w3.org/1999/xlink" x="0px" y="0px"
	 viewBox="0 0 32 32" style="enable-background:new 0 0 32 32;" xml:space="preserve">
<style type="text/css">
	.st0{fill:#FFFFFF;}
	.st1{fill:#172729;}
	.st2{fill:#2E939E;}
	.st3{fill:#BCE2E8;}
	.st4{fill:#24C5E3;}
	.st5{fill:#D3593D;}
	.st6{fill:#E28027;}
	.st7{fill:none;stroke:#172729;stroke-miterlimit:10;}
	.st8{fill:#00697A;}
	.st9{fill:#222222;}
	.st10{fill:#989898;}
	.st11{fill:#4B4B4B;}
	.st12{fill:#767676;}
</style>
<g id="Logos__x28_place_final_logo_here_x29_">
</g>
<g id="Brand_Book">
	<g>
		<path class="st1" d="M31.14,16c0,6.24-3.78,11.6-9.17,13.92c-1.83,0.79-3.85,1.22-5.97,1.22c-2.22,0-4.33-0.48-6.23-1.34
			C4.51,27.43,0.86,22.14,0.86,16C0.86,7.64,7.64,0.85,16,0.85C24.36,0.85,31.14,7.64,31.14,16z"/>
		<g>
			<path class="st3" d="M21.97,29.92c-1.83,0.79-3.85,1.22-5.97,1.22c-2.22,0-4.33-0.48-6.23-1.34l1.2-5.94l1.37-6.79l0.44-2.19h0
				l0.35-1.73l0-0.02l0.27-1.34l0.27-1.32h4.38l0.27,1.32l0.27,1.33l0.01,0.03l0.79,3.92l1.37,6.79L21.97,29.92z"/>
			<path class="st4" d="M15.86,16.3c-1.3,0-2.51,0.29-3.52,0.78l1.33-6.6h4.38l1.33,6.6C18.38,16.59,17.16,16.3,15.86,16.3z"/>
			<path class="st4" d="M21.97,29.92c-1.83,0.79-3.85,1.22-5.97,1.22c-2.22,0-4.33-0.48-6.23-1.34l1.2-5.94
				c1.16,1.03,2.92,1.69,4.89,1.69c1.97,0,3.73-0.66,4.89-1.69h0L21.97,29.92z"/>
			<path class="st3" d="M20.43,14.06v-1.31c0-0.62-2.05-1.12-4.57-1.12s-4.57,0.5-4.57,1.12v1.31c0,0,0.13-1.12,4.57-1.12
				C20.35,12.94,20.43,14.06,20.43,14.06z"/>
			<path class="st8" d="M13.13,13.16c-1.12,0.2-1.84,0.53-1.84,0.9c0,0.33,0.58,0.62,1.49,0.83L13.13,13.16z"/>
			<path class="st8" d="M18.59,13.16c1.12,0.2,1.84,0.53,1.84,0.9c0,0.33-0.58,0.62-1.49,0.83L18.59,13.16z"/>
			<circle class="st8" cx="15.86" cy="20.46" r="2.05"/>
			<path class="st2" d="M15.86,20.46l-1.24,1.64c-0.51-0.39-0.81-0.99-0.81-1.64c0-1.13,0.93-2.05,2.05-2.05
				c0.47,0,0.92,0.16,1.28,0.45L15.86,20.46z"/>
			<path class="st8" d="M18.04,9.42v1.06h-4.37V9.42l1.95-1.33V7.12c-0.17-0.09-0.29-0.26-0.29-0.47c0-0.29,0.23-0.52,0.52-0.52
				c0.29,0,0.52,0.23,0.52,0.52c0,0.2-0.12,0.38-0.29,0.47v0.97L18.04,9.42z"/>
			<path class="st2" d="M15.86,10.48l-2.19,0V9.42l1.95-1.33V7.12c-0.17-0.09-0.29-0.26-0.29-0.47c0-0.29,0.23-0.52,0.52-0.52
				c-0.16,0.17-0.23,0.35-0.23,0.52c0,0.17,0.08,0.35,0.23,0.52v0.75L15.86,10.48z"/>
		</g>
	</g>
</g>
<g id="Guidelines">
</g>
</svg>
