<?xml version="1.0" encoding="utf-8"?>
<!-- Generator: Adobe Illustrator 26.2.1, SVG Export Plug-In . SVG Version: 6.00 Build 0)  -->
<svg version="1.1" xmlns="http://www.w3.org/2000/svg" xmlns:xlink="http://www.w3.org/1999/xlink" x="0px" y="0px"
	 viewBox="0 0 640 640" style="enable-background:new 0 0 640 640;" xml:space="preserve">
<style type="text/css">
	.st0{fill:#FFFFFF;}
	.st1{fill:#172729;}
	.st2{fill:#2E939E;}
	.st3{fill:#BCE2E8;}
	.st4{fill:#24C5E3;}
	.st5{fill:#D3593D;}
	.st6{fill:#E28027;}
	.st7{fill:none;stroke:#172729;stroke-miterlimit:10;}
	.st8{fill:#00697A;}
	.st9{fill:#222222;}
	.st10{fill:#989898;}
	.st11{fill:#4B4B4B;}
	.st12{fill:#767676;}
</style>
<g id="Logos__x28_place_final_logo_here_x29_">
</g>
<g id="Brand_Book">
	<g>
		<path class="st3" d="M626.69,317.34c0,126.42-76.49,234.98-185.72,281.9c-37.11,15.95-78.01,24.79-120.97,24.79
			c-44.96,0-87.65-9.67-126.12-27.05C87.4,548.89,13.31,441.76,13.31,317.34C13.31,147.95,150.62,10.64,320,10.64
			C489.38,10.64,626.69,147.95,626.69,317.34z"/>
		<g>
			<path class="st4" d="M417.91,479.55c-23.91,21.27-60.19,34.83-100.74,34.83c-40.62,0-76.9-13.59-100.8-34.87l28.25-139.85
				l9.13-45.21l7.17-35.54l0.1-0.45v-0.03l5.56-27.54l5.49-27.25h90.17l5.53,27.25l5.08,25.22l0.45,2.25l0.13,0.55l7.17,35.54
				l9.13,45.18L417.91,479.55z"/>
			<path class="st1" d="M317.16,323.54c-26.85,0-51.8,5.93-72.54,16.13l27.45-136.02h90.16l27.45,136.01
				C368.94,329.47,344,323.54,317.16,323.54z"/>
			<path class="st1" d="M443.07,604.13c-37.76,16.23-79.37,25.23-123.07,25.23c-45.73,0-89.17-9.83-128.31-27.51l24.68-122.33
				c23.91,21.27,60.19,34.87,100.8,34.87c40.55,0,76.83-13.56,100.74-34.83L443.07,604.13z"/>
			<path class="st4" d="M411.34,277.42v-27.06c0-12.74-42.17-23.06-94.19-23.06s-94.19,10.32-94.19,23.06v27.06
				c0,0,2.78-23.06,94.19-23.06C409.64,254.36,411.34,277.42,411.34,277.42z"/>
			<path class="st8" d="M260.91,258.92c-23.03,4.2-37.95,10.93-37.95,18.5c0,6.76,11.86,12.83,30.77,17.05L260.91,258.92z"/>
			<path class="st8" d="M373.4,258.92c23.03,4.2,37.95,10.93,37.95,18.5c0,6.76-11.86,12.83-30.77,17.05L373.4,258.92z"/>
			<circle class="st8" cx="317.15" cy="409.28" r="42.31"/>
			<path class="st3" d="M317.15,409.28l-25.55,33.73c-10.55-7.99-16.76-20.49-16.76-33.73c0-23.21,19.1-42.31,42.31-42.31
				c9.6,0,18.93,3.27,26.43,9.27L317.15,409.28z"/>
			<path class="st8" d="M362.05,181.77v21.88h-89.99v-21.88l40.17-27.43v-19.92c-3.5-1.75-5.9-5.38-5.9-9.58
				c0-5.92,4.81-10.73,10.73-10.73c5.93,0,10.74,4.81,10.74,10.73c0,4.19-2.4,7.82-5.9,9.58v19.93L362.05,181.77z"/>
			<path class="st4" d="M317.15,203.65l-45.09-0.01v-21.87l40.17-27.43v-19.92c-3.5-1.75-5.9-5.38-5.9-9.58
				c0-5.92,4.81-10.73,10.73-10.73c-3.21,3.57-4.83,7.15-4.83,10.73c0,3.58,1.61,7.16,4.83,10.74v15.47L317.15,203.65z"/>
		</g>
	</g>
</g>
<g id="Guidelines">
</g>
</svg>
